<?xml version="1.0" standalone="no"?>
<!DOCTYPE svg PUBLIC "-//W3C//DTD SVG 20010904//EN"
 "http://www.w3.org/TR/2001/REC-SVG-20010904/DTD/svg10.dtd">
<svg version="1.0" xmlns="http://www.w3.org/2000/svg"
 width="319.000000pt" height="319.000000pt" viewBox="0 0 319.000000 319.000000"
 preserveAspectRatio="xMidYMid meet">
<metadata>
Created by potrace 1.14, written by Peter Selinger 2001-2017
</metadata>
<g transform="translate(0.000000,319.000000) scale(0.100000,-0.100000)"
fill="#000000" stroke="none">
<path d="M3185 1595 c0 -880 1 -1239 2 -797 2 442 2 1162 0 1600 -1 438 -2 77
-2 -803z"/>
<path d="M1380 3141 c-8 -5 -64 -16 -125 -26 -60 -9 -112 -20 -115 -25 -3 -4
-30 -13 -60 -20 -30 -7 -66 -19 -80 -26 -14 -7 -65 -32 -115 -55 -49 -23 -92
-45 -95 -48 -3 -3 -22 -15 -42 -26 -21 -11 -38 -22 -38 -26 0 -3 -12 -11 -27
-18 -16 -7 -35 -19 -43 -27 -8 -7 -50 -43 -92 -79 -42 -37 -106 -101 -143
-143 -36 -42 -72 -84 -79 -92 -8 -8 -20 -27 -27 -42 -7 -16 -15 -28 -18 -28
-4 0 -15 -17 -26 -37 -11 -21 -23 -40 -26 -43 -3 -3 -25 -45 -48 -95 -23 -49
-48 -101 -55 -115 -7 -14 -19 -50 -26 -80 -7 -30 -16 -57 -20 -60 -5 -3 -16
-54 -25 -115 -10 -60 -21 -118 -26 -127 -12 -23 -12 -373 0 -396 5 -9 16 -66
26 -127 9 -60 20 -112 25 -115 4 -3 13 -30 20 -60 7 -30 19 -66 26 -80 7 -14
32 -65 55 -115 23 -49 45 -92 48 -95 3 -3 15 -22 26 -42 11 -21 22 -38 26 -38
3 0 11 -12 18 -28 7 -15 19 -34 27 -42 7 -8 43 -50 79 -92 37 -42 101 -106
143 -143 42 -36 84 -72 92 -79 8 -8 27 -20 43 -27 15 -7 27 -15 27 -18 0 -4
17 -15 37 -26 21 -11 40 -23 43 -26 3 -3 46 -25 95 -48 50 -23 101 -48 115
-55 14 -7 50 -19 80 -26 30 -7 57 -16 60 -20 3 -5 55 -16 115 -25 61 -10 118
-21 127 -26 23 -12 373 -12 396 0 9 5 67 16 127 26 61 9 112 20 115 25 3 4 30
13 60 20 30 7 66 19 80 26 14 7 66 32 115 55 50 23 92 45 95 48 3 3 22 15 42
26 21 11 38 22 38 26 0 3 12 11 28 18 15 7 34 19 42 27 8 7 50 43 92 79 42 37
106 101 143 143 36 42 72 84 79 92 8 8 20 27 27 43 7 15 15 27 18 27 4 0 15
17 26 38 11 20 23 39 26 42 3 3 25 46 48 95 23 50 48 101 55 115 7 14 19 50
26 80 7 30 16 57 20 60 5 3 16 55 25 115 10 61 21 118 26 127 12 23 12 373 0
396 -5 9 -16 67 -26 127 -9 61 -20 112 -25 115 -4 3 -13 30 -20 60 -7 30 -19
66 -26 80 -7 14 -32 66 -55 115 -23 50 -45 92 -48 95 -3 3 -15 22 -26 43 -11
20 -22 37 -26 37 -3 0 -11 12 -18 28 -7 15 -19 34 -27 42 -7 8 -43 50 -79 92
-37 42 -101 106 -143 143 -42 36 -84 72 -92 79 -8 8 -27 20 -42 27 -16 7 -28
15 -28 18 0 4 -17 15 -37 26 -21 11 -40 23 -43 26 -3 3 -45 25 -95 48 -49 23
-101 48 -115 55 -14 7 -50 19 -80 26 -30 7 -57 16 -60 20 -3 5 -54 16 -115 25
-60 10 -118 21 -127 26 -22 11 -378 11 -398 0z m370 -281 c47 -6 94 -14 105
-19 11 -5 51 -17 90 -26 38 -9 74 -20 80 -24 5 -4 32 -16 60 -26 27 -10 56
-25 63 -32 7 -7 19 -13 26 -13 11 0 101 -54 141 -85 11 -9 42 -32 69 -53 62
-47 141 -126 188 -188 21 -27 44 -58 53 -69 31 -40 85 -130 85 -141 0 -7 6
-19 13 -26 7 -7 22 -36 32 -63 10 -28 22 -55 26 -60 4 -6 15 -42 24 -80 9 -39
21 -79 26 -90 13 -30 29 -179 29 -275 0 -96 -16 -245 -29 -275 -5 -11 -17 -51
-26 -90 -9 -38 -20 -74 -24 -80 -4 -5 -16 -32 -26 -60 -10 -27 -25 -56 -32
-63 -7 -7 -13 -19 -13 -26 0 -11 -54 -101 -85 -141 -9 -11 -32 -42 -53 -69
-47 -62 -126 -141 -188 -188 -27 -21 -58 -44 -69 -53 -40 -31 -130 -85 -141
-85 -7 0 -19 -6 -26 -13 -7 -7 -36 -22 -63 -32 -28 -10 -55 -22 -60 -26 -6 -4
-42 -15 -80 -24 -39 -9 -79 -21 -90 -26 -30 -13 -179 -29 -275 -29 -96 0 -245
16 -275 29 -11 5 -51 17 -90 26 -38 9 -74 20 -80 24 -5 4 -32 16 -60 26 -27
10 -56 25 -63 32 -7 7 -19 13 -26 13 -11 0 -99 53 -141 85 -126 96 -202 167
-257 241 -20 27 -44 58 -53 69 -31 40 -85 130 -85 141 0 7 -6 19 -13 26 -7 7
-22 36 -32 63 -10 28 -22 55 -26 60 -4 6 -15 42 -24 80 -9 39 -21 79 -26 90
-13 30 -29 179 -29 275 0 96 16 245 29 275 5 11 17 51 26 90 9 38 20 74 24 80
4 5 16 32 26 60 10 27 25 56 32 63 7 7 13 19 13 26 0 11 54 101 85 141 9 11
32 42 53 69 47 62 126 141 188 188 27 21 58 44 69 53 40 31 130 85 141 85 7 0
19 6 26 13 7 7 36 22 63 32 28 10 55 22 60 26 6 4 42 15 80 24 39 9 79 21 90
26 56 25 303 36 445 19z"/>
<path d="M1514 2720 c-54 -22 -54 -20 -54 -477 0 -265 -4 -423 -10 -423 -21 0
-83 -67 -106 -114 -21 -43 -25 -64 -23 -134 l2 -82 -251 -251 c-154 -155 -252
-259 -255 -275 -8 -43 4 -73 44 -109 48 -43 82 -45 135 -7 21 16 139 131 262
257 l223 228 82 -2 c70 -2 90 2 135 24 68 33 122 90 122 129 0 8 6 16 12 18 9
3 13 31 13 88 0 57 -4 85 -13 88 -6 2 -12 10 -12 18 0 32 -64 108 -101 119
-18 6 -19 23 -19 423 0 229 -3 426 -6 438 -12 45 -116 70 -180 44z"/>
</g>
</svg>
